<?xml version="1.0" standalone="no"?>
<!DOCTYPE svg PUBLIC "-//W3C//DTD SVG 20010904//EN"
 "http://www.w3.org/TR/2001/REC-SVG-20010904/DTD/svg10.dtd">
<svg version="1.0" xmlns="http://www.w3.org/2000/svg"
 width="666.000000pt" height="666.000000pt" viewBox="0 0 666.000000 666.000000"
 preserveAspectRatio="xMidYMid meet">
<metadata>
Created by potrace 1.11, written by Peter Selinger 2001-2013
</metadata>
<g transform="translate(0.000000,666.000000) scale(0.100000,-0.100000)"
fill="#000000" stroke="none">
<path d="M1497 6404 c-2 -2 -61 -5 -131 -6 -83 -2 -131 -7 -137 -14 -6 -7 -33
-15 -62 -19 -29 -4 -62 -13 -74 -21 -13 -8 -23 -12 -23 -9 0 3 -16 -1 -35 -9
-19 -8 -35 -12 -35 -8 0 4 -5 -1 -11 -10 -5 -10 -28 -21 -49 -24 -22 -4 -40
-10 -40 -14 0 -4 -12 -11 -27 -15 -15 -3 -33 -15 -41 -26 -7 -10 -22 -19 -32
-19 -11 0 -27 -8 -37 -18 -10 -10 -36 -32 -58 -48 -22 -16 -46 -35 -53 -41 -7
-7 -18 -13 -23 -13 -6 0 -8 -4 -4 -9 3 -5 -4 -12 -14 -16 -11 -3 -30 -22 -41
-41 -12 -18 -28 -34 -37 -34 -8 0 -17 -9 -20 -20 -3 -11 -9 -20 -13 -20 -3 0
-24 -25 -45 -55 -20 -30 -41 -55 -46 -55 -5 0 -9 -5 -9 -10 0 -6 -22 -40 -50
-77 -27 -36 -48 -69 -45 -73 2 -3 -8 -20 -23 -37 -16 -16 -26 -35 -25 -40 2
-6 -3 -18 -12 -26 -8 -9 -15 -19 -15 -24 0 -5 -9 -26 -20 -48 -11 -22 -20 -46
-20 -54 0 -8 -6 -22 -14 -30 -18 -21 -57 -127 -62 -170 -3 -19 -8 -40 -13 -45
-10 -12 -26 -76 -23 -89 1 -4 -3 -17 -9 -28 -11 -21 -17 -46 -23 -98 -2 -15
-6 -33 -10 -39 -23 -37 -27 -309 -28 -1682 0 -1445 3 -1616 33 -1685 4 -11 10
-40 11 -65 2 -25 7 -48 11 -51 5 -3 10 -12 11 -20 15 -78 20 -95 27 -105 5 -6
10 -23 11 -38 1 -14 6 -26 9 -26 4 0 11 -15 14 -32 4 -18 14 -42 21 -53 8 -11
14 -29 14 -41 0 -12 7 -27 15 -34 8 -7 15 -19 15 -27 0 -8 7 -21 15 -29 8 -9
15 -23 15 -33 0 -10 9 -26 20 -36 10 -9 24 -33 30 -51 7 -19 16 -34 21 -34 5
0 9 -4 9 -9 0 -6 14 -25 30 -43 17 -18 30 -36 30 -40 0 -10 28 -44 67 -81 18
-16 35 -38 38 -48 3 -10 15 -21 26 -24 11 -4 29 -21 40 -38 10 -18 22 -32 26
-32 5 0 24 -17 44 -36 20 -20 45 -39 55 -43 22 -7 74 -53 74 -65 0 -5 11 -12
25 -15 14 -4 35 -16 46 -27 11 -11 24 -17 29 -14 6 4 10 2 10 -3 0 -11 117
-72 139 -72 9 0 27 -7 39 -16 12 -8 22 -12 22 -8 0 5 5 3 12 -4 7 -7 26 -12
44 -12 18 0 34 -5 36 -12 3 -7 20 -14 39 -17 33 -4 2323 -4 4231 -1 826 2 977
4 982 16 3 8 13 14 23 14 21 1 55 24 47 33 -3 3 4 8 15 12 11 3 29 20 40 38
11 18 28 41 38 52 24 25 70 150 78 209 15 105 18 147 17 241 0 135 -12 229
-36 287 -8 19 -12 38 -9 42 4 3 1 6 -5 6 -7 0 -12 6 -12 14 0 7 -9 25 -20 39
-11 14 -20 31 -20 39 0 18 -101 95 -136 104 -16 3 -35 13 -41 22 -7 9 -16 13
-19 9 -4 -3 -16 -1 -27 5 -15 8 -724 11 -2516 11 -2050 0 -2499 2 -2516 13
-11 7 -23 13 -28 13 -22 -1 -73 15 -85 27 -7 8 -22 14 -32 14 -11 0 -24 9 -30
19 -5 11 -19 23 -30 26 -11 3 -20 12 -20 19 0 8 -7 19 -16 27 -17 14 -74 131
-74 152 0 7 -5 18 -12 25 -6 6 -12 31 -13 55 -1 24 -6 50 -11 58 -11 18 -14
360 -3 375 5 6 11 28 14 50 7 52 10 64 23 97 7 16 12 31 12 34 0 19 148 193
164 193 6 0 25 7 41 16 75 40 50 40 1865 38 1475 0 1758 2 1771 13 9 8 20 13
25 11 23 -6 111 16 132 33 14 10 29 19 33 19 12 0 49 37 49 49 0 5 11 12 25
15 18 5 27 15 31 36 4 16 17 38 29 50 13 12 21 28 19 35 -3 7 0 16 5 20 6 3 9
10 7 14 -3 4 3 36 14 70 10 34 17 71 15 82 -2 11 1 32 7 47 12 31 11 248 -2
272 -4 8 -8 26 -8 40 -2 44 -9 98 -16 109 -4 6 -9 21 -12 33 -8 34 -10 40 -25
73 -19 41 -72 115 -82 115 -5 0 -23 10 -40 22 -18 13 -34 23 -37 23 -3 0 -18
9 -34 20 -16 10 -50 20 -78 22 -28 1 -56 7 -63 13 -12 10 -467 19 -500 10 -5
-1 -14 -1 -20 0 -32 6 -555 4 -555 -3 0 -5 -6 -5 -12 -1 -14 9 -424 8 -439 -1
-5 -4 -9 -3 -9 2 0 8 -93 8 -115 -1 -7 -2 -16 -2 -19 1 -7 7 -216 10 -216 3 0
-4 -404 -5 -520 -1 -19 1 -44 1 -55 1 -11 0 -55 0 -98 0 -43 0 -82 -2 -88 -5
-5 -4 -9 -3 -9 2 0 4 -19 7 -42 5 -54 -3 -14 -4 -373 3 -574 11 -515 6 -590
53 -11 7 -32 18 -47 25 -16 6 -28 16 -28 22 -1 5 -23 39 -50 75 -27 36 -52 78
-56 95 -3 16 -11 36 -16 42 -6 7 -12 36 -15 65 -2 29 -8 57 -12 63 -11 14 -7
347 4 365 5 8 9 25 10 37 0 12 3 24 7 28 4 4 4 13 1 21 -3 8 9 39 26 69 17 30
28 55 24 55 -4 0 2 9 13 20 28 28 44 48 44 55 0 12 64 64 72 59 4 -3 11 2 14
10 3 9 24 21 45 27 21 7 39 16 39 20 0 4 8 9 18 10 9 1 1146 4 2526 6 1755 2
2512 6 2516 14 4 6 13 12 21 13 68 13 89 19 89 25 0 3 14 12 32 20 34 15 108
83 108 99 0 5 7 13 16 16 9 4 14 9 11 13 -3 3 1 20 10 37 10 17 19 44 21 61 2
16 8 38 14 48 13 25 18 53 19 117 1 30 6 60 11 67 13 16 0 275 -15 289 -4 4
-7 26 -7 49 0 22 -5 46 -10 51 -6 6 -12 19 -15 30 -7 35 -30 89 -41 99 -7 6
-26 30 -43 54 -17 24 -43 51 -58 59 -62 33 -84 44 -96 46 -7 1 -19 6 -27 11
-8 6 -37 11 -65 13 -73 5 -4773 10 -4778 6z"/>
</g>
</svg>
