<svg xmlns="http://www.w3.org/2000/svg" viewBox="0 0 187.1 45.513"><defs><style>.a,.b{fill:#fff;}.a{fill-rule:evenodd;}</style></defs><path class="a" d="M8.836,57.2H8.829l.007,4.868.034.368.116.252.177.15.252.048.266-.048.17-.15.116-.252L10,62.073V57.2l-.014-.286-.034-.266L9.9,56.393l-.075-.245-.075-.239-.13-.218-.136-.211L9.3,55.261l-.2-.184-.184-.136L8.7,54.852l-.232-.061-.218-.02-.239.02-.232.061-.2.089-.2.136-.184.184L7,55.479l-.123.211-.116.218-.089.239-.082.245-.048.252-.034.273-.014.28v2.441l-.034.355-.116.266-.17.15-.266.055-.266-.055-.17-.15-.116-.266-.034-.355V57.2L5.3,56.918l-.02-.266-.055-.259-.082-.245-.1-.239-.116-.218L4.8,55.479l-.17-.218-.184-.184-.2-.136-.2-.089-.232-.061-.232-.02-.239.02-.218.061L2.9,54.94l-.211.136-.184.184-.17.218L2.2,55.69l-.116.218-.1.239-.068.245-.048.259-.034.266L1.82,57.2v4.868l.048.368.089.252.2.15.252.048.252-.048.184-.15.116-.252.034-.368V57.2H2.986l.034-.355.116-.266.184-.143.259-.061.259.061.177.143.1.266.034.355v2.441l.014.28.034.273.055.266.068.239.1.232.116.232.143.2.17.218.184.177.2.136.218.1.211.048.239.02.245-.02L6.368,62l.2-.1.2-.136.177-.177.184-.218.136-.2.13-.232.089-.239.082-.245.048-.252.02-.273.014-.286V57.2l.034-.355.116-.266.184-.143.259-.061.259.061.177.143.116.266.034.355Z" transform="translate(-0.579 -17.425)"/><path class="a" d="M16.321,54.872l-.2.1-.184.15-.184.17-.157.211-.13.232L15.332,56l-.1.28-.068.273-.048.3-.02.3v.014h0v3.4l.02.286.041.28.055.252.082.239.1.232.116.211.136.191.164.17.184.164.259.164.293.1.307.034H22.7l.266-.048.177-.15.109-.252.034-.368-.034-.341-.109-.252-.177-.15-.266-.048H16.859l-.266-.048-.184-.164-.109-.259-.041-.348L16.3,60.1l.109-.252.184-.15.266-.055h4.084l.252-.048.184-.164.1-.252.048-.348-.048-.355-.1-.252-.184-.164L20.943,58H16.859l-.266-.048-.184-.15-.109-.239-.041-.361.041-.355.109-.266.184-.143.266-.061H22.7l.266-.048.177-.15.109-.266.034-.355-.034-.341-.109-.259-.177-.143L22.7,54.77H16.859l-.184.007-.17.041-.184.055Z" transform="translate(-4.804 -17.425)"/><path class="a" d="M36.584,56.853l-.048-.3-.082-.273-.13-.28-.1-.259-.15-.232-.164-.211-.17-.17-.2-.15-.2-.1-.184-.055-.17-.041H29.977l-.17.041-.164.055-.218.1-.184.13-.17.15-.136.157-.109.2-.116.211-.089.239-.082.245-.055.273-.034.3v3.948l.034.293.055.259.082.252.1.239.13.2.136.2.15.177.2.157.259.164.293.1.293.034h4.7l.3-.034.286-.1.266-.164.184-.157.157-.177.15-.191.1-.211.109-.232.075-.239.061-.252.048-.28v-.348h0V60.16l-.034-.286-.061-.273-.089-.28-.116-.239-.13-.245.13-.239.116-.239.089-.28.061-.273.034-.293v-.3h0ZM35.4,60.814l-.109.259-.184.164-.266.048H30.189l-.266-.048-.184-.17-.116-.259-.034-.348.034-.368.116-.252.17-.15.266-.055h4.671l.266.055.184.15.109.252.041.368Zm0-3.246-.109.239-.184.15-.266.048H30.189l-.266-.048-.17-.15-.116-.239-.034-.361.034-.355.116-.266.17-.15.266-.055h4.671l.266.055.184.15.109.266.041.355Z" transform="translate(-9.051 -17.428)"/><path class="a" d="M49.266,61.282H43.422l-.252-.048-.184-.164-.116-.259-.034-.348v-4.9L42.8,55.22l-.116-.259-.17-.143-.252-.048L42,54.818l-.177.143-.109.259-.041.341v4.9l.014.273.034.28.048.252.082.245.082.239.123.218.136.2.177.218.191.184.2.143.2.089.232.068.232.014h5.843l.266-.048.184-.15.1-.252.034-.368-.034-.341-.1-.252-.184-.15-.266-.048Z" transform="translate(-13.257 -17.425)"/><path class="a" d="M56.184,54.872l-.211.1-.177.15-.191.17-.143.211-.15.232-.13.259-.089.28-.082.273-.034.3-.027.3v.014h0v3.4l.027.286.034.28.055.252.082.239.1.232.116.211.136.191.164.17.184.164.266.164.286.1.3.034h5.857l.239-.048.184-.15.116-.252.034-.368-.034-.341-.116-.252-.184-.15-.239-.048H56.7l-.252-.048-.2-.164-.089-.259-.048-.348.048-.368.089-.252.2-.15.252-.055h4.091l.259-.048.17-.164.116-.252.034-.348-.034-.355-.116-.252-.17-.164L60.793,58H56.7l-.252-.048-.2-.15-.089-.239-.048-.361.048-.355.089-.266.2-.143.252-.061h5.857l.239-.048.184-.15.116-.266.034-.355L63.1,55.22l-.116-.259-.184-.143-.239-.048H56.7l-.17.007-.177.041-.17.055Z" transform="translate(-17.482 -17.425)"/><path class="a" d="M86.182,56.853l-.048-.3-.068-.273-.1-.28-.13-.259L85.7,55.51l-.2-.211-.177-.17-.184-.15-.191-.1-.13-.055-.177-.041H79.568l-.177.041-.15.055-.218.1-.184.13-.17.15-.136.157L78.4,55.6l-.116.211-.1.239-.082.245-.055.273-.048.3v3.948l.048.293.055.259.082.252.1.239.13.2.136.2.13.17.184.157.28.164.286.1.3.034h4.691l.3-.034.286-.1.266-.164.225-.157.157-.177.143-.191.116-.211.1-.232.082-.239.055-.252.048-.28v-.327h0v-.648l-.068-.273-.082-.28-.116-.239-.13-.245.13-.239.116-.239.082-.28.068-.273v-.593h0Zm-1.173,3.962-.1.259-.2.164-.252.048h-4.7l-.252-.048-.184-.17-.1-.259-.034-.348.034-.368.1-.252.184-.15.252-.055h4.684l.252.055.2.15.1.252v.368Zm0-3.246-.1.239-.2.15-.252.048h-4.7l-.252-.048-.184-.15-.1-.239-.034-.361.034-.355.1-.266.184-.15.252-.055h4.684l.252.055.2.15.1.266v.355Z" transform="translate(-24.816 -17.428)"/><path class="a" d="M92.459,55.561l-.034-.341-.116-.259-.17-.143-.252-.048-.266.048-.17.143-.116.259-.034.341v6.512l.034.368.116.252.17.15.266.048.252-.048.17-.15.116-.252.034-.368V55.561Z" transform="translate(-29.047 -17.425)"/><path class="a" d="M101.289,55.561v4.9l-.034.348-.116.259-.17.164-.252.048H96.032l-.252-.048L95.6,61.07l-.116-.259-.034-.348v-4.9l-.034-.341-.109-.259-.177-.143-.259-.048-.259.048-.177.143-.116.259-.034.341v4.9l.014.273.034.28.048.252.082.245.089.239.1.218.143.2.184.218.191.184.184.143.218.089.232.068.232.014h4.684l.225-.014.218-.068.211-.089.2-.143.184-.184.17-.218.143-.2.116-.218.1-.239.068-.245.055-.252.034-.28.014-.273h0v-4.9l-.034-.341-.116-.259-.184-.143-.252-.048-.252.048-.184.143-.116.259-.034.341Z" transform="translate(-29.995 -17.425)"/><path class="a" d="M107.56,57.2v4.868l.034.368.1.252.2.15.252.048.252-.048.184-.15.109-.252.034-.368V57.2l.041-.355.1-.266.184-.143.259-.061h4.671l.259.061.191.143.109.266.034.355-.034.361-.109.239-.191.15-.259.048h-2.925l-.232.02-.225.068-.211.1-.191.15-.184.17-.184.232-.143.218-.1.2-.089.245-.082.252-.048.239-.034.28-.014.286.014.273.034.28.048.252.082.245.089.239.1.218.143.2.184.218.184.184.191.143.211.089.225.068.232.014h4.112l.239-.048.184-.15.1-.252.048-.368-.048-.341-.1-.252-.184-.15-.239-.048h-4.112l-.252-.048-.184-.164-.116-.259-.034-.348.034-.368.116-.252.184-.15.252-.055h2.925l.239-.014.218-.068.2-.109.211-.136.184-.157.184-.218.123-.225.116-.218.109-.225.068-.252.055-.266.034-.266.014-.28-.014-.286-.034-.266-.055-.259-.068-.245-.109-.239-.116-.218-.123-.211-.184-.218-.184-.184-.211-.136-.2-.089-.218-.061-.239-.02h-4.671l-.232.02-.218.061-.218.089-.211.136-.184.184-.17.218-.136.211-.116.218-.1.239-.068.245-.061.259-.034.266V57.2Z" transform="translate(-34.22 -17.425)"/><path class="a" d="M129.04,56.927v-.259l-.055-.266-.075-.245-.089-.239-.116-.218-.136-.211-.184-.218-.184-.184-.2-.136-.218-.089-.232-.061h-5.128l-.232.061-.218.089-.2.136-.184.184-.184.218-.136.211-.116.218-.082.239L121,56.4l-.061.266v4.357l.061.252.075.245.082.239.116.218.136.2.184.218.184.184.2.143.218.089.232.068h5.128l.232-.068L128,62.73l.2-.143.184-.184.184-.218.136-.2.116-.218.089-.239.075-.245.055-.252v-4.1Zm-1.159,3.546-.048.348-.1.259-.184.164-.245.048h-4.677l-.259-.048-.184-.164-.109-.259-.041-.348V57.214l.041-.355.109-.266.184-.15.259-.055H127.3l.245.055.184.15.1.266.048.355Z" transform="translate(-38.477 -17.435)"/><path class="a" d="M141.129,60.463l-.048.348-.1.259-.191.164-.259.048-.239-.048-.2-.164-.1-.259-.048-.348V57.722l-.034-.259-.055-.259-.068-.239-.1-.239-.109-.232-.15-.211-.17-.218-.2-.177-.191-.143-.211-.1-.225-.068-.245-.014-.232.014-.218.068-.218.1-.191.143-.184.177-.184.218-.143.211-.1.232-.089.239-.082.239-.061.259-.02.259-.014.28v2.461l-.034.348-.116.259-.177.164-.259.048-.252-.048-.191-.164-.109-.259-.02-.348h0v-4.9l-.034-.341-.116-.259-.184-.143-.266-.048-.239.048-.184.143-.116.259-.034.341v4.9l.014.273.02.28.055.252.082.245.1.239.116.218.123.2.184.218.184.184.211.143.2.089.218.068.239.014.232-.014.232-.068.2-.089.211-.143.17-.184.184-.218.136-.2.116-.218.1-.239.061-.245.055-.252.034-.28.014-.273V58l.034-.334.1-.266.2-.15.239-.048.266.048.184.15.116.266.034.334v2.461l.014.273.034.28.055.252.061.245.089.239.116.218.136.2.184.218.177.184.2.143.218.089.232.068.225.014.245-.014.218-.068.2-.089.211-.143.191-.184.164-.218.136-.2.13-.218.089-.239.082-.245.048-.252.034-.28.014-.273v-4.9l-.041-.341-.109-.259-.184-.143-.259-.048-.252.048-.191.143-.109.259-.027.341-.014,4.9Z" transform="translate(-42.67 -17.425)"/><path class="a" d="M148.627,54.872l-.2.1-.2.15-.157.17-.177.211-.136.232-.123.259-.109.28-.068.273-.034.3-.014.3v.014H147.4v3.355l.007.027v.02l.014.286.034.28.048.252.1.239.089.232.123.211.143.191.17.17.17.164.266.164.286.1.3.034h5.843l.266-.048.177-.15.1-.252.034-.368-.034-.341-.1-.252-.177-.15-.266-.048h-5.843l-.266-.048-.17-.164-.116-.259-.034-.348.034-.368.116-.252.17-.15.266-.055h4.084l.266-.048.184-.164.1-.252.048-.348-.048-.355-.1-.252-.184-.164L153.23,58h-4.084l-.266-.048-.17-.15-.116-.239-.034-.361.034-.355.116-.266.17-.143.266-.061h5.843l.266-.048.177-.15.1-.266.034-.355-.034-.341-.1-.259-.177-.143-.266-.048h-5.843l-.184.007-.157.041-.177.055Z" transform="translate(-46.895 -17.425)"/><path class="a" d="M171.609,55.561l-.034-.341-.116-.259-.17-.143-.252-.048-.266.048-.184.143-.1.259-.034.341v6.512l.034.368.1.252.184.15.266.048.252-.048.17-.15.116-.252.034-.368V55.561Z" transform="translate(-54.229 -17.425)"/><path class="a" d="M184.516,56.373h5.816l.259-.055.184-.143.109-.266.027-.355-.027-.341-.109-.266-.184-.136-.259-.061-5.823.014-.232.02-.232.061-.2.089-.2.136-.191.184-.191.218-.136.211-.1.218-.089.239-.082.245-.048.259-.034.266-.014.286.014.28.034.266.048.266.082.252.089.225.1.218.136.225.191.218.191.17.2.136.2.1.232.061.232.014h4.657l.266.055.17.15.1.252.048.368-.048.348-.1.259-.17.164-.266.048h-5.843l-.239.048-.184.15-.116.252-.034.341.034.368.116.252.184.15.239.048,5.843.02.232-.034.218-.055.218-.1.2-.143.191-.184.177-.218.136-.2.116-.232.1-.225.068-.245.061-.266.027-.266v-.559l-.027-.28-.061-.239-.068-.252-.1-.245-.116-.218-.136-.218-.177-.232-.184-.157-.2-.15-.218-.1-.211-.068-.239-.02h-4.657l-.266-.048-.184-.15-.116-.239-.034-.361.034-.355.116-.266.2-.143.259-.061Z" transform="translate(-58.142 -17.419)"/><path class="a" d="M203.613,54.77H196.6l-.252.048-.184.143-.109.259-.041.341.041.355.109.266.184.15.252.048h5.087l-5.318,4.95-.2.184-.116.252-.041.307.041.368.109.252.184.15.252.048h7.016l.266-.048.17-.15.116-.252.034-.368-.034-.341-.116-.252-.17-.15-.266-.048H198.56l5.339-5,.014-.007v-.014h.014l.007-.007.014-.014.014-.014.041-.048-.007-.007L204.11,56l.068-.2.02-.232-.034-.341-.116-.259-.17-.143-.266-.048Z" transform="translate(-62.361 -17.425)"/><path class="a" d="M214.318,58h-3.852V55.561l-.034-.341-.116-.259-.177-.143-.252-.048-.259.048-.184.143-.109.259-.034.341v6.512l.034.368.109.252.184.15.259.048.252-.048.177-.15.116-.252.034-.368V59.638h3.852l2.141,2.987.116.136.157.109.15.02.266-.048.2-.15.1-.252.02-.368-.007-.218-.075-.2-.109-.184-1.9-2.639,1.9-2.646.109-.17.075-.2.007-.245-.02-.341-.1-.259-.2-.143-.266-.048-.15.034-.157.082-.116.157v-.007L214.318,58Z" transform="translate(-66.589 -17.425)"/><path class="a" d="M213.567,66.68h0Z" transform="translate(-67.944 -21.214)"/><path class="b" d="M213.567,66.705h-.007v-.1Z" transform="translate(-67.944 -21.192)"/><path class="a" d="M230.771,56.921l-.034-.259-.048-.266-.082-.245-.1-.239-.116-.218-.123-.211-.184-.218-.184-.184-.191-.15-.211-.089-.218-.061h-5.155l-.218.061-.2.089-.211.136-.191.184-.164.218L223,55.68l-.13.218-.089.239-.068.245-.061.266v4.357l.061.252.068.245.109.245.13.218.136.2.164.218.191.184.211.143.2.089.218.068h5.121l.218-.068.211-.089.2-.143.184-.184.184-.218.123-.2.116-.218.1-.239.082-.245.048-.252.034-.28V56.921Zm-1.159,3.546-.034.348-.116.259-.184.164-.252.048h-4.671l-.252-.048-.2-.164-.1-.259-.041-.348V57.207l.041-.355.1-.266.2-.15.252-.055h4.671l.252.055.184.15.116.266.034.355Z" transform="translate(-70.836 -17.428)"/><path class="a" d="M243.456,61.282h-5.843l-.259-.048-.191-.164-.1-.259-.041-.348v-4.9l-.041-.341-.109-.259-.17-.143-.252-.048-.266.048-.184.143-.1.259-.034.341v4.9l.014.273.02.28.061.252.068.245.089.239.116.218.136.2.184.218.184.184.2.143.218.089.232.068.232.014h5.843l.252-.048.184-.15.1-.252.048-.368-.048-.341-.1-.252-.184-.15-.252-.048Z" transform="translate(-75.039 -17.425)"/><path class="a" d="M254.152,61.923l.157.252.177.218.17.184.2.143.218.089.218.068.252.014.232-.014.232-.068.2-.089.2-.143.2-.184.17-.218.136-.2.13-.218.089-.239.068-.245.061-.252.034-.28.007-.273v-4.9l-.034-.341-.109-.259-.184-.143-.259-.048-.259.048-.184.143-.116.259-.034.341v4.9l-.034.348-.109.259-.177.164-.259.048-.157-.034-.136-.1-.13-.157-.13-.2-.1-.184-.089-.15-2.523-4.725-.157-.259-.177-.218-.191-.184-.184-.136-.218-.089-.245-.061-.232-.02-.239.02-.232.061-.2.089-.2.136-.184.184-.184.218-.123.211-.116.218-.1.239-.075.245-.055.259-.034.266-.014.286v4.868l.048.368.1.252.2.15.239.048.252-.048.184-.15.116-.252.027-.368V57.2l.034-.355.116-.266.184-.143.259-.061.15.034.143.1.136.177.123.184.1.17.082.157,2.536,4.718Z" transform="translate(-79.258 -17.425)"/><path class="a" d="M263.634,54.872l-.211.1-.184.15-.17.17-.164.211-.136.232-.13.259-.1.28-.068.273-.048.3-.02.3v.014h0v3.4l.02.286.041.28.055.252.082.239.1.232.123.211.143.191.15.17.184.164.273.164.28.1.307.034H270l.266-.048.17-.15.109-.252.034-.368-.034-.341-.109-.252-.17-.15L270,61.282h-5.843l-.266-.048-.17-.164-.116-.259-.034-.348.034-.368.116-.252.17-.15.266-.055h4.084l.266-.048.184-.164.1-.252.048-.348-.048-.355-.1-.252-.184-.164L268.243,58h-4.084l-.266-.048-.17-.15-.116-.239-.034-.361.034-.355.116-.266.17-.143.266-.061H270l.266-.048.17-.15.109-.266.034-.355-.034-.341-.109-.259-.17-.143L270,54.77h-5.843l-.17.007-.17.041-.184.055Z" transform="translate(-83.483 -17.425)"/><path class="a" d="M6.259,31.5l26.353-.068.082-.116.13-.027.123-.068h.048l.034-.116.068-.068.1-.007.082-.13.089-.13.089-.109.082-.116.082-.1.027-.164.068-.075.041-.143.027-.15.082-.136.007-.2.048-.164v-.457l.1-.184v-.9l-.1-.184.014-.266-.061-.2v-.232l-.089-.089-.027-.164-.041-.123-.068-.109-.061-.136-.089-.116-.041-.055-.02-.1v-.089l-.157-.048-.109-.15-.15-.055-.068-.116-.123-.02-.13-.061h-.116l-.089-.116-.164-.014-.116-.068H6.682l-.116-.123H6.4l-.136-.061H6.212l-.055-.007H6.109l-.068-.1-.116-.027-.116-.055H5.755l-.061-.116-.068-.068-.089-.014-.15-.239-.164-.184L5.155,24.1l-.1-.1-.041-.15-.027-.15-.075-.089-.041-.164-.007-.17v-.164l-.1-.15V21.206l.1-.143v-.184l.048-.184v-.136l.075-.116.048-.136.02-.136.082-.082.061-.1.089-.055.034-.089.048-.082.068-.027.02-.089.061-.068.068-.034.055-.109.1-.055.068-.136h.13l.116-.061.109-.02.116-.13h.164l.164-.068h18l.116-.123.184.007.17-.02.1-.055.116-.014h.116l.068-.1.1-.055.13-.034.055-.1.109-.068.055-.143h.082l.068-.041.068-.034.02-.1.027-.082.014-.089.075-.068.075-.1.075-.068.014-.15.034-.123v-.143l.082-.116.02-.157.048-.164V16.5l.1-.184-.014-.28v-.9l-.1-.15v-.239l-.041-.218v-.184l-.1-.089-.014-.164-.034-.136v-.082l-.075-.061L26.3,13.7l-.014-.123-.068-.034-.048-.068-.02-.1-.082-.034-.041-.068-.034-.089-.1-.014-.082-.061-.068-.007-.082-.116-.1-.048-.116-.02-.089-.1-.116-.034-.116-.061h-.4l-.15-.123-.2.007h-.818l-.32-.007H18.567l-.307.007H14.83l-.32.014H12.655l-.32-.014H10.48l-.32-.007h-.62l-.314-.014H8.919L8.6,12.573H8.3L8,12.566H7.684l-.314-.014-.307-.014h-.3l-.32-.014H6.259l-.082-.1-.116-.034-.089-.055H5.9l-.082-.109-.1-.055-.109-.02-.055-.116-.068-.082-.048-.116L5.373,11.8l-.048-.068-.034-.1-.068-.027-.048-.068-.02-.089-.1-.082-.041-.136-.027-.164-.075-.1-.041-.15-.007-.17V10.48l-.1-.164V8.557l.1-.136v-.2l.048-.17V7.9l.075-.1.048-.15.116-.089V7.419l.055-.089.082-.048L5.325,7.2l.048-.068L5.441,7.1l.02-.089.061-.075L5.591,6.9l.055-.109.109-.048.116-.034.089-.13.13-.055.136-.014L6.348,6.4h.177l.157-.068H32.136l.1-.13h.17l.15-.068h.136l.082-.116.116-.02.1-.055h.061l.041-.116.082-.061.1-.007.027-.1.041-.068.082-.034.02-.1.061-.068.068-.034.014-.136.048-.116.068-.055.02-.136.034-.143.014-.157.082-.109.02-.157.034-.15V3.73l.1-.177V2.7l-.1-.17.014-.273-.061-.211-.007-.1.007-.1v-.1l-.089-.1-.048-.15-.02-.136-.061-.082-.034-.116-.034-.123-.068-.02L33.452.941l-.02-.1L33.349.8,33.308.75l-.027-.1L33.213.62,33.165.566l-.034-.1L33.042.45,32.961.4l-.082-.02L32.8.28,32.674.239,32.558.2,32.511.184h-.068l-.15-.13-.2.014-.2.014L31.672.034,31.474,0l-.218.014H29.681L29.36.02H25.576L25.249.014H22.412L22.1,0H12.307L12,.014h-.955L10.719.02H9.791L9.478.034H8.216L7.9.048H7.6L7.282.055H6.969l-.32.014L6.341.082,6.225.2H6.041l-.17.068H5.612L5.523.382l-.15.007L5.237.464H5.189L5.141.47H5.093l-.075.1-.1.034L4.8.655H4.657l-.068.1L4.473.784,4.357.839H4.3L4.234.955l-.116.061L4,1.036H3.934l-.048.116-.068.068-.089.007-.068.116L3.546,1.4l-.109.034L3.4,1.527,3.314,1.6l-.1.02-.048.1L3.1,1.793,3,1.807l-.041.116L2.877,2l-.061.123H2.748l-.055.048-.068.02-.027.1-.041.068-.082.034-.027.089-.041.061-.075.034L2.3,2.666l-.048.075-.068.041-.027.1-.055.055-.068.027-.014.1-.061.068L1.9,3.164l-.02.1-.048.068-.068.02-.02.1-.061.068L1.6,3.552l-.027.082-.02.082-.014.1-.089.068-.061.1-.082.068v.13l-.041.1-.1.041-.014.13-.041.116-.082.048-.02.136-.041.1-.007.13-.082.068-.055.068-.014.123-.082.1-.048.136-.014.164-.075.1L.586,5.9l-.048.15V6.13l-.075.1-.027.157-.048.13v.2l-.075.1-.027.15L.239,7.1v.266l-.075.123L.15,7.7.1,7.869v.573l-.1.2L.014,8.9V23.483l.089.17L.1,23.906l.055.232.014.136-.014.15v.13l.089.123.014.2.048.191v.136l.082.1.02.17.048.15v.164l.082.089.041.143.027.143.068.1.048.136.02.164.082.082.041.136.027.164.082.068.048.1.02.136.082.055.041.082.014.143.1.089.068.116.082.116.027.055.007.061v.068l.068.02.048.061.027.1.075.034.061.068.02.089.068.027.048.082.02.089.068.034.061.068.014.082.089.068.068.1.109.027.055.1.082.089.034.116.082.034.055.041h.082l.048.123.055.068.055.116.1.014.082.068.034.116.1.02.082.061.048.109.1.014.075.061.075.007.082.1.1.068.055.136.1.027.075.041.1.014.068.116.1.055.116.027.082.109.13.027.109.055h.061l.082.109.1.02.089.055h.218l.082.116.13.027.116.055h.252l.123.13.184-.027.164.1Z"/><path class="a" d="M59.5,31.5l.3-.014.3.014.3.007.3-.007.266-.061.082-.02h.089l.082.014.082-.116.116-.027.116-.068H61.6l.068-.116.089-.055.068-.13.075-.007.068-.034.068-.041.02-.089.055-.068.061-.034.014-.136.041-.109.1-.068.014-.116.034-.1L62.381,30l.082-.109.027-.15.041-.143v-.266l.1-.191-.014-.266.014-.266V23.319l-.1-.164V21.7l.1-.191v-.293l.041-.239v-.232l.1-.089.034-.143.02-.157.082-.116.048-.136.1-.1.014-.123.055-.1.082-.048.068-.116.1-.075.1-.116.048-.048.055-.02.061-.014.075-.116.143-.055.136-.014.089-.13.164-.007.116-.061h18.1l.116-.123.2.007.17-.02L83,18.778l.082-.014h.089l.068-.1.116-.034.1-.055h.075l.041-.1.1-.034.082-.061.02-.089.055-.068.075-.034.034-.1.041-.068.068-.02.027-.1.048-.068.075-.02.014-.143.034-.1.014-.116.089-.136.048-.164.014-.2.068-.15.014-.218-.014-.2.055-.2v-.3l.014-.286-.02-.3-.048-.266v-.389l-.068-.1-.027-.164-.034-.164v-.068l-.089-.089-.048-.136-.014-.164-.089-.048-.061-.089v-.13L84,13.48l-.034-.041-.014-.061-.1-.007-.075-.075-.034-.109-.061-.034-.068-.048h-.068l-.068-.116-.116-.048-.1-.02-.109-.116L83,12.792l-.116-.068H82.53l-.143-.123-.191.007h-.839L81.03,12.6H76.291l-.32.007H72.486l-.3.014H70.6l-.32-.014H68.388l-.32-.007h-.634l-.314-.014h-.307l-.32-.014h-.314l-.32-.007h-.3l-.32-.014-.314-.014h-.307l-.327-.014H64.1l-.082-.116-.13-.02-.109-.055h-.116l-.109-.13-.123-.089-.1-.143-.034-.02H63.22l-.068-.13-.075-.1-.027-.157-.082-.048-.055-.116v-.15l-.1-.068-.048-.136v-.177l-.082-.089-.02-.15-.034-.15V9.907l-.1-.164v-.6l.082-.157.014-.211V8.55l.041-.184V8.1l.1-.1.034-.13.02-.164.1-.143.1-.177.1-.15L63.22,7.1l.116-.136.1-.184.089-.014.075-.048.089-.007.082-.13.116-.055L64,6.512h.068l.116-.1.164-.014.15-.068H89.88L90,6.2h.17l.15-.068h.136l.068-.116.13-.02.1-.055h.055l.048-.116.068-.068.061-.116.068-.014.055-.034.082-.034.027-.1.02-.075V5.278l.089-.068.061-.075V5.018l.089-.1.034-.143.027-.157.082-.13.007-.184.048-.17v-.58l.1-.17V2.9l-.1-.157V2.23l-.02-.123-.034-.143V1.807l-.068-.1-.027-.15-.048-.123V1.357L91.4,1.289l-.061-.116-.014-.136-.068-.02L91.217.941l-.027-.1L91.107.8,91.067.75l-.027-.1L90.971.62,90.9.586,90.848.573l-.061-.1L90.732.389l-.1-.007-.089-.1L90.432.239,90.317.2,90.248.184h-.13l-.15-.13-.2.014-.2.014L89.444.034,89.3,0l-.143.014H87.589l-.3.007H83.532L83.2.014H80.4L80.089,0H70.066l-.307.014h-.934L68.518.02h-.934l-.32.014H66.015l-.293.014-.327.007h-.62l-.307.014-.3.014L64.052.2h-.184l-.15.068h-.286l-.1.116-.143.007-.143.075h-.034L62.968.47h-.034l-.082.1L62.743.6l-.13.055H62.5l-.082.1-.123.027-.116.055h-.048l-.068.116-.116.034-.116.048h-.055l-.048.1-.089.048-.1.041-.061.116-.1.061-.116.034-.034.089L61.14,1.6l-.089.02-.061.089-.089.048-.1.048-.034.116-.068.068L60.615,2l-.075.143-.089.109-.1.116-.068.109-.089.082-.116.014-.027.089-.041.075-.061.041-.02.1-.055.055-.075.027-.055.225-.116.164-.116.136-.089.143-.1.1-.034.157-.068.082-.055.1-.014.13-.1.082-.055.075-.082.075-.014.123-.034.1-.007.116-.1.068-.041.1-.014.116-.1.089-.034.136-.02.15-.068.109-.048.136-.02.136-.082.116-.027.17-.041.15v.082l-.082.1-.027.136-.034.143V6.9l-.089.143-.014.184L58,7.4v.355l-.1.2-.014.286-.041.245.007.293-.007.314v.3L57.84,9.7v.314l.014.3.007.286.034.273.014.177v.368l.1.123.007.2.048.184v.266l.082.1.02.164.048.157v.15l.082.1.034.136.02.164.1.089.007.17.048.164v.082l.068.082.061.136.1.082.014.116.034.1.007.136.082.055.055.109.014.136.082.055.055.116.014.136.068.034.048.075.034.089.068.089.061.143.089.1.068.1.068.082.075.1-.041.068-.02.061v.089l-.082.082-.068.1-.089.048-.027.1-.041.075-.061.034-.02.143-.048.089-.082.068-.014.13-.055.089-.082.048-.014.136-.055.116-.082.068-.007.116-.034.1-.014.116-.1.068-.041.1-.014.116-.1.116-.034.184-.007.191-.082.1-.048.143-.02.136-.082.1-.027.15-.034.15v.184l-.089.13-.014.2-.041.17v.334l-.1.2-.014.3-.041.245v.634l.007.307v.955l-.007.314v1.275l-.014.32v2.209l.014.327v.307l.007.314v.307l.014.32.014.3v.314l.02.32v.3l.1.082.034.15.02.157.082.082.041.136.027.164.1.1.1.116.075.136.034.027.034.007h.061l.055.109.082.055.1.02.089.13.13.055.136.014.068.116H59.4l.1.082Z" transform="translate(-18.402)"/><path class="a" d="M117.956,31.5l26.278-.068.068-.116.143-.027.109-.068h.061l.068-.116.089-.041.13-.034.02-.082.061-.068.068-.041.02-.089.048-.068.068-.034.02-.1.041-.075v-.1l.089-.1.034-.136L145.4,30l.075-.109.027-.15.034-.143v-.266l.089-.191V27.485l-.089-.13-.014-.191-.048-.177V26.8l-.075-.1-.048-.123-.1-.082v-.109l-.041-.075-.02-.1-.068-.034-.048-.068-.02-.1-.068-.02-.061-.075-.02-.075-.1-.027-.082-.048-.082-.007-.089-.13-.143-.068h-.15l-.109-.13h-.164l-.15-.068H118.474l-.136-.123-.184-.014-.164-.055h-.177l-.075-.1-.1-.061-.123-.02-.109-.136-.123-.109-.1-.15-.116-.136-.1-.15-.143-.136-.007-.13-.034-.1-.014-.123-.1-.082-.034-.164-.007-.17v-.082l-.1-.17.014-.252-.055-.232v-.3l-.014-.3v-.3l.055-.252.014-.157v-.348l.068-.1.02-.143.034-.136v-.191l.082-.109.061-.136.089-.055.061-.232.116-.15.123-.15.048-.048.048-.007h.055l.034-.109.068-.068.1-.02.082-.116.109-.055.143-.014h.055l.1-.13.15-.007.136-.061h18.042l.13-.123.184.007.17-.02.068-.048.082-.02h.082l.089-.1.13-.034.116-.055h.055l.034-.1.068-.068.1-.027.068-.136.089-.116.1-.123.082-.1.082-.1.027-.15.089-.136.034-.177.014-.184.082-.1.02-.15.034-.136v-.655l.089-.15v-.436l-.089-.164v-.491l-.02-.13-.034-.136v-.164l-.082-.089-.014-.177-.048-.157v-.068l-.075-.109-.061-.136-.089-.089-.143-.184-.136-.184-.136-.15H137.5l-.082-.116-.1-.048-.116-.02-.1-.116-.15-.014-.13-.068h-.341l-.15-.123-.2.007h-.818l-.32-.007h-4.746l-.32.007h-3.484l-.32.014h-1.575l-.314-.014H122.34l-.32-.007h-.634l-.32-.014h-.314l-.307-.014h-.314l-.32-.007h-.3l-.32-.014-.32-.014h-.314l-.307-.014h-.232l-.1-.116-.157-.007-.13-.068h-.055l-.082-.109-.1-.055-.048-.15-.164-.055-.109-.15-.116-.164-.034-.055-.027-.068v-.082l-.082-.048-.041-.089-.014-.13-.1-.1-.034-.15-.007-.17V10.6l-.1-.164v-.239l-.055-.211.014-.286-.014-.293v-.28l.055-.266.014-.157V8.366l.068-.109.02-.15.034-.136V7.9l.1-.089.034-.143.02-.157.082-.082.068-.089.1-.061v-.1l.055-.068.1-.014.02-.089.048-.075.068-.034.055-.109.109-.048.123-.034.082-.13.13-.055.143-.014.116-.116h.2l.17-.068H143.8l.13-.13h.17l.157-.068h.116l.075-.116.109-.055.116-.02.048-.109.089-.041.1-.034.02-.1.061-.068.068-.034.02-.1.048-.068.068-.034.02-.089.061-.068.068-.034.014-.116.034-.116.014-.116.075-.116.014-.157.048-.164V4.132l.089-.2V2.2l-.089-.123-.014-.2-.048-.184V1.623l-.075-.1-.041-.136-.02-.164-.082-.1-.068-.136-.082-.1-.1-.13-.089-.123-.143-.061-.055-.1L144.65.4l-.1-.02-.082-.1-.109-.041L144.255.2l-.068-.014h-.136l-.123-.13L143.7.068l-.2.014-.15-.048L143.2,0l-.184.014h-1.575l-.32.007h-3.771L137.02.014h-2.843L133.87,0h-9.8l-.307.014h-.941L122.49.02h-.927l-.327.014h-1.255l-.32.014h-.3l-.32.007h-.314l-.307.014-.314.014L117.969.2h-.2l-.17.068h-.218l-.089.116-.164.007L117,.464h-.075l-.075.007h-.068l-.068.1L116.592.6l-.116.055h-.116l-.068.1-.13.075-.123.007h-.061l-.055.116-.116.061-.116.02-.068.116-.1.055-.116.02-.068.116-.1.061-.061.123-.082.014-.055.048-.068.034-.082.116-.1.068-.089.123-.048.034L114.587,2h-.068l-.014.1-.041.068-.075.02-.041.1-.075.075-.089.02-.068.136-.1.116-.1.116-.123.184-.13.17-.15.15L113.5,3.4l-.055.109-.082.041-.02.082-.061.068-.068.027-.02.089-.034.1V4l-.1.068-.034.1v.116l-.089.068-.048.1-.02.136-.082.061-.061.089v.116l-.089.116-.048.136-.1.1-.014.123-.034.1-.007.13-.082.089-.014.143-.048.15v.068l-.082.116-.02.17-.048.15v.15l-.075.1-.014.17-.048.15V7.18l-.089.17-.014.252-.055.218v.43l-.1.191.014.266v.28l-.034.17-.027.17v.184l.027.327.034.286v.818l.089.15v.239l.061.2v.375l.075.1.027.15.048.13v.2l.075.1.027.15.034.15v.041l.007.027.082.1.014.164.048.157v.068l.082.1.034.15.02.15.082.082.048.136.109.089.014.13.034.123.014.13.082.048.055.1.014.123.082.075.041.089.1.068v.1l.034.075.02.1.068.034.061.068.02.1.13.123.007.218-.041.2v.034l-.15.136-.1.164-.143.13v.109l-.041.109-.082.055-.027.13-.041.109-.082.075-.014.123-.055.082-.082.055-.014.13-.034.1-.007.116-.1.1-.034.136-.02.143-.082.1-.034.136-.027.164-.082.1-.02.157-.048.15v.15l-.075.116-.014.164-.048.15v.157l-.089.184-.014.259-.055.2v.307l-.1.2.014.28v.273l-.027.3-.034.3V22.5l.014.252.048.232v.8l.089.143v.245l.061.2v.375l.075.1.027.157.048.143v.184l.075.1.027.15.034.15v.041l.007.027.082.1.014.164.048.157v.068l.082.1.034.15.02.136.082.061.055.089.014.13.068.068.048.123.034.116.082.1.068.13.089.116.027.068.007.082v.089l.075.034.055.068.02.1.068.02.061.061.02.1.068.034.061.068.02.089.068.027.061.082.02.089.068.034.048.068.014.082.116.1.089.123.089.13.027.034.048.007h.041l.061.116.082.075.041.123.15.048.109.15.143.068.061.1.082.068.089.027.082.109.1.061.034.13.1.007.082.061.1.007.068.116.1.061.116.02.082.116.089.055.116.027.1.123.13.061.15.007.082.109.109.02.1.055h.136l.116.116.15.027.13.055h.191l.13.13.2-.027.143.1Z" transform="translate(-35.541)"/><path class="a" d="M169.972,31.508l.293-.014.286.014.273.007.286-.007.252-.061.1-.02h.089l.082.014.068-.116.116-.034.116-.061h.061l.041-.089.082-.048.1-.055.082-.109.1-.082.075-.109.061-.061.02-.082.014-.089.082-.082.055-.1.014-.13.068-.089.02-.164.048-.136v-.2l.082-.136.014-.232.055-.2V19.01h.32l.3-.007h1.275l.314-.014h.955l.314-.014h1.275l.314-.007h1.261l.314-.014h4.118l.32.014h.634l.307.007h.948l.32.014h.307l.327.014h.293l.327.007.32.014h.307l.327.014.3.007h.32l.136.2.13.2.15.17.136.184.136.184.15.184.13.184.136.184.136.2.136.17.143.2.123.191.1.014.082.068.027.1.075.048.041.068.027.082.082.034.041.068.027.1.082.034.041.068.027.089.055.041.055.068.027.089.068.034.055.061.027.089.068.034.055.068.027.1.068.034.048.068.02.1.082.034.048.068.034.089.055.027.048.068.02.089.068.034.061.068.02.1.068.034.061.068.02.089.068.041.048.068.034.082.068.034.048.068.034.089.055.034.048.068.02.1.075.034.055.068.02.1.075.034.055.068.02.082.075.034.041.068.034.089.068.034.048.075.027.089.068.034.041.068.041.1.055.041.055.048.027.1.068.034.055.068.027.089.068.034.048.082.034.1.068.02.048.068.034.1.055.02.055.048h.068l.143.232.15.191.157.184.116.17.136.2.15.184.143.184.136.177.136.177.13.191.136.177.136.177.136.191.13.2.089.061.082.116.048.123.068.034.061.068.02.1.068.034.055.068.027.089.068.034.055.075.027.089.068.027.034.068.02.089.082.034.048.068.034.1.068.034.048.068.02.089.068.041.061.068.02.082.068.027.061.075.02.089.068.034.061.034.068.014.1.17.1.15.15.068.061.109.068.055.1.02.082.13.123.055.136.014.082.116.13.02.116.061h.307l.334.007.314-.007.3-.061.082-.02h.089l.1.014.055-.116.116-.034.1-.061h.055l.061-.089.089-.048.1-.055.034-.109.068-.068.1-.014.007-.055.027-.048.041-.007.014-.13.055-.1.082-.048.027-.089.034-.082v-.1l.089-.116.048-.157.014-.2.089-.17.014-.252.041-.218V28.044l-.041-.32-.014-.116v-.232l-.089-.082-.034-.136-.027-.164-.082-.089-.041-.15-.027-.136-.068-.048-.055-.061-.027-.089-.075-.1-.048-.143-.1-.109-.15-.184-.15-.211-.157-.191-.143-.211-.123-.191-.089-.027-.082-.068-.034-.116-.075-.02-.055-.068-.02-.109-.082-.034-.048-.068-.02-.075-.068-.041-.048-.068-.02-.089-.075-.034-.041-.061-.027-.089-.082-.034-.041-.082-.027-.1-.068-.034-.055-.068-.027-.082-.068-.02-.055-.068-.027-.1-.068-.034-.041-.068-.027-.1-.068-.034-.048-.068-.034-.1-.068-.034-.048-.055-.02-.1-.068-.02-.061-.082-.02-.089-.068-.034-.061-.075-.02-.089-.068-.034-.048-.068-.02-.1-.068-.034-.061-.055-.02-.1-.068-.034-.048-.068-.02-.089-.068-.034-.075-.034-.068-.014-.136-.218-.15-.184-.15-.2-.15-.2-.15-.211-.15-.191-.15-.2-.157-.2-.15-.2-.15-.2-.13-.218-.136-.109-.1-.123-.1-.136-.13-.164-.123-.184-.13-.136H195.7l-.048-.109-.082-.075-.041-.116-.061-.034-.055-.068-.027-.1-.075-.034-.048-.068-.02-.1-.082-.034-.048-.068-.02-.089-.061-.034-.055-.068-.027-.1-.068-.02-.041-.075-.027-.089-.082-.034-.041-.068-.041-.1-.068-.034-.041-.055-.041-.1-.068-.041-.041-.075-.027-.089-.068-.02-.048-.075-.02-.089-.068-.048-.061-.068-.02-.089-.068-.014-.061-.068-.02-.1-.068-.034-.048-.075-.02-.1-.068-.02-.061-.068-.034-.1-.055-.048-.048-.068-.02-.082-.048-.007-.02-.048.007-.061.143-.068.089-.136.116-.136.136-.2.15-.184.136-.2.143-.184.143-.17.041-.082.041-.068.068-.048.041-.089.041-.068.082-.034.027-.1.041-.055.068-.034.027-.1.055-.055.061-.034.02-.1.048-.075.082-.034.02-.089.048-.068.075-.027.027-.089.055-.068.061-.034.034-.1.048-.055.068-.034.02-.1.055-.075.061-.034.02-.089.061-.068.068-.027.068-.109.1-.082.1-.116.075-.1.075-.116.109-.068.061-.136.089-.116.1-.116.15-.191.15-.2.15-.2.13-.191.15-.2.15-.2.15-.2.15-.184.136-.2.15-.2.157-.177.15-.184h.1l.02-.1.048-.068.068-.034.02-.1.061-.068.068-.034.02-.089.061-.068.068-.027.02-.089.048-.068.068-.041.034-.089.048-.068.068-.034.027-.1.041-.068.068-.034.027-.089.055-.061.068-.034.027-.089.055-.075.068-.034.027-.089.041-.068.082-.034.027-.1.041-.068.075-.034.02-.082.048-.068L200.2,7.1l.02-.089.048-.075.082-.034.02-.089.055-.068.075-.034.02-.1.055-.082.061-.02.034-.082.048-.068.082-.034.007-.1.048-.068.068-.027L201,6.02l.1-.075.082-.116.136-.177.136-.17.109-.2V5.209l.075-.082.061-.082.089-.055.014-.13.034-.116.014-.123.089-.1.034-.136.027-.136.089-.143.014-.191.041-.184V3.15l.014-.3-.014-.3-.041-.28-.014-.1V1.936l-.082-.1-.02-.184-.048-.15V1.445l-.089-.1-.048-.13-.1-.089-.007-.1-.034-.082-.027-.1-.068-.034-.048-.055-.007-.1-.116-.014-.082-.068-.048-.1-.089-.02-.082-.048-.089-.02-.082-.1-.109-.041-.1-.041L200.682.19h-.1l-.15-.13-.2.014-.2.014-.15-.034-.136-.027-.13.034-.136.014h-.123l-.143.014-.1.1-.15.014-.123.068h-.061l-.068.116-.1.055-.116.034-.055.1-.075.082-.041.116h-.082l-.061.034-.068.034-.034.1-.041.075-.075.02-.068.116-.1.075-.082.13-.15.164-.136.191-.136.184-.13.2-.136.17-.15.2-.136.17-.164.177-.136.15-.082.15-.089.123-.1.116-.136.184-.136.17-.13.184-.136.184-.136.184-.15.177-.143.184-.123.191-.13.211-.068.007-.068.034-.068.027-.02.089-.048.068-.068.034-.034.1-.061.068-.068.034-.02.1-.048.068-.055.034-.034.089-.048.061-.068.034-.034.089-.048.068-.068.027-.027.1-.055.068-.068.034-.027.1-.055.068-.055.034-.041.082-.041.068-.068.034-.027.089-.048.075-.068.034-.034.089-.041.068-.075.034-.02.1-.055.068-.075.034-.02.082-.055.068-.075.034-.02.089-.048.075-.055.034-.034.089-.048.068-.068.034-.034.1-.048.055-.068.034-.02.1-.061.068-.068.034-.02.089-.061.075-.068.034-.02.089-.048.068-.055.034-.034.1-.048.055-.082.048-.02.089-.048.075-.068.02-.027.089-.055.075-.068.041-.027.1-.055.055-.068.034-.027.082-.055.068-.055.034-.068.116-.109.082-.089.13-.136.184-.15.17-.143.2-.136.191-.15.2-.136.184-.15.2-.123.191-.143.184-.15.2-.15.184-.15.184-.136.164-.157.184-.164.157H173.02l-.007-.307v-.3l-.014-.32v-.614l-.014-.307V8.591L173,8.277V4.561l-.014-.3V3.954l-.007-.314v-.3l-.014-.307-.014-.286-.007-.314-.014-.15V2.011l-.082-.13-.014-.2-.041-.177V1.445l-.082-.1-.048-.13-.1-.089-.014-.1-.02-.082-.02-.1-.075-.034-.055-.055-.02-.1L172.29.627l-.061-.034-.082-.014-.041-.1L172.045.4l-.082-.007-.089-.1-.13-.041L171.629.2,171.561.19h-.136l-.136-.13-.211.014-.2.014L170.8.075l-.082-.014L170.667.02l-.225.068-.259-.014-.266.014-.082.1L169.672.2l-.136.068H169.4l-.068.116-.116.055-.1.034-.027.1-.055.055-.068.034-.027.1-.055.055-.068.034-.027.1-.041.075-.068.02-.027.089-.034.082v.1l-.089.109-.048.123-.02.15-.068.1-.027.15-.034.136V2.55l-.089.2V29l.089.17v.28l.048.2.014.082v.15l.068.089.041.15.027.143.082.1.068.136.082.116.1.136.1.13.089.15.1.007.068.061.1.007.075.116.1.061.116.02.1.116h.157l.116.082Z" transform="translate(-53.526 -0.006)"/><path class="a" d="M239.725,31.5l.286-.014.314.014.3.007.286-.007.273-.061.082-.02h.1l.075.014.068-.116.143-.027.116-.068h.055l.068-.116.1-.055.068-.13.061-.007.068-.034.068-.041.027-.089.041-.068.082-.034.014-.136.048-.109.089-.068V30.22l.048-.1.007-.116.082-.109.027-.15.034-.143v-.266l.075-.191V28.29l.014-.3v-4.4l-.014-.307V12.635l.014-.327v-.92l.014-.32v-.3l.014-.307v-.62l.007-.327.014-.293V8.557l.089-.136v-.2l.061-.17V7.9l.082-.089.041-.143.027-.157.082-.082.055-.089.1-.061.02-.082.055-.068.061-.034.02-.089.061-.075.068-.034.048-.109.075-.075.1-.007.082-.13.116-.055.136-.014h.048l.116-.1.17-.014.15-.068h10.773l.109-.13h.177l.15-.068h.15l.068-.116.116-.02.1-.055h.068l.034-.116.082-.061.1-.007.02-.1.061-.068.068-.034.02-.1.061-.068.068-.034L257,5.223l.041-.116.082-.055.014-.13.041-.1.014-.116.068-.1.027-.15.034-.13v-.4l.089-.184V2.393l-.089-.136-.014-.2-.048-.17v-.15l-.068-.13-.034-.184-.116-.116-.007-.1L257,1.125l-.02-.089-.1-.1L256.832.8,256.7.77l-.055-.1L256.58.586,256.532.47l-.082-.02L256.369.4l-.089-.02L256.2.28l-.123-.041L255.96.2l-.068-.014h-.13l-.15-.13-.2.014L255.2.082l-.191-.048L254.787,0l-.225.014h-.62l-.32.007h-.941l-.32-.007h-.934L251.1,0h-3.777l-.307.014h-.314L246.4.02l-.314.014h-.32l-.3.014-.314.007-.307.014h-.32l-.314.014L244.075.2h-.211l-.157.068h-.2l-.089.116-.164.007-.136.075h-.034l-.034.007H243l-.068.1-.13.027-.116.055h-.116l-.068.1-.1.061-.123.02L242.2.955l-.116.02-.116.061h-.055l-.034.116-.082.068-.1.007-.068.116-.1.061-.13.034-.034.089-.082.075-.1.02-.034.1-.082.068-.089.014-.068.136-.1.116-.089.1-.034.027-.034.007H240.6l-.082.164-.143-.014-.082-.15-.109-.007-.075-.075L240.079,2l-.068-.041-.055-.034h-.082l-.055-.123-.075-.068-.041-.116-.1-.02-.082-.075-.034-.089-.089-.02-.082-.048-.1-.014-.068-.116-.1-.055-.116-.034-.068-.13-.1-.055-.116-.014-.082-.1-.089-.061-.116-.02-.082-.1-.13-.027-.109-.068h-.116l-.1-.1L237.72.45,237.6.382h-.191l-.1-.116-.164-.014L237.032.2h-.116L236.8.184h-.123l-.136-.13-.211.014-.191.014L235.92.068,235.7.055l-.17-.041h-.62l-.32.007h-.948l-.307-.007h-.948L232.061,0H227.99l-.314.014L227.37.02h-.314l-.307.014h-.314l-.3.014-.32.007L225.6.068h-.218l-.218.014-.1.1-.15.014-.13.068h-.116l-.068.116-.116.055L224.37.47l-.048.1-.068.082-.061.116h-.068L224.07.8,224,.839l-.048.218-.116.136-.048.2-.082.1-.02.164-.048.15v.157l-.082.143-.007.184-.061.17.014.3-.014.307v.3l.014.293.034.273.014.15v.3l.089.089.027.164.034.136v.082l.075.068.041.13.034.116.089.1.061.136.089.1.048.082.041.055.048.109.1.007.068.061.034.116.123.02.109.048h.123l.068.116.109.034.109.041h.293l.143.13h.409l.32.014h2.5l.32-.014h.934l.32-.014h3.15l.3.014h.32l.3.014h.327l.307.007.314.014.307.014.314.007.307.014.109.014h.239l.068.089.116.034.116.048h.014l.007.014h.027l.089.116.1.055.068.136.1.014.068.068.048.116.082.048.055.089v.13l.1.055.041.116.014.136.082.1.034.136.02.15.082.13.014.2.048.17v.736l.1.15-.014.266v.539l.014.327v5.046l-.014.314v9.144l.014.314v.62l.007.32v.948l.014.293V27.9l.014.307v.62l.014.314.007.32v.218l.082.1.02.143.034.15v.082l.082.068.034.116.034.116.1.1.048.143.089.1.048.082.048.041h.075l.061.109.082.055.1.02.089.13.109.055.136.014.089.116h.13l.1.082Z" transform="translate(-71.103)"/></svg>